<svg width="292" height="312" viewBox="0 0 292 312" fill="none" xmlns="http://www.w3.org/2000/svg">
<path d="M254.666 31.797C276.608 52.911 285.716 86.238 289.442 116.667C293.168 147.303 291.719 175.041 286.958 205.677C282.197 236.313 274.124 269.433 253.217 289.098C232.31 308.763 198.155 314.766 167.519 310.005C136.883 305.244 109.559 289.719 77.681 273.78C45.596 257.634 8.75 241.074 1.712 215.613C-5.326 190.152 17.444 155.997 31.727 121.428C46.217 86.652 52.22 51.462 72.92 29.934C93.413 8.40602 128.81 0.333013 163.586 0.954014C198.362 1.57501 232.931 10.683 254.666 31.797Z" fill="#0F62FE"/>
</svg>
