<svg width="250" height="214" viewBox="0 0 250 214" fill="none" xmlns="http://www.w3.org/2000/svg">
<path d="M194.5 87C191.104 91.098 186.35 106 194.5 106C202.65 106 197.896 91.098 194.5 87Z" fill="#C8D9F9"/>
<path d="M219.5 78C216.104 82.098 211.35 97 219.5 97C227.65 97 222.896 82.098 219.5 78Z" fill="#C8D9F9"/>
<path d="M241.5 87C238.104 91.098 233.35 106 241.5 106C249.65 106 244.896 91.098 241.5 87Z" fill="#C8D9F9"/>
<path d="M199.5 141C196.104 145.098 191.35 160 199.5 160C207.65 160 202.896 145.098 199.5 141Z" fill="#C8D9F9"/>
<path d="M229.5 162C226.104 166.098 221.35 181 229.5 181C237.65 181 232.896 166.098 229.5 162Z" fill="#C8D9F9"/>
<path d="M245.5 123C242.104 127.098 237.35 142 245.5 142C253.65 142 248.896 127.098 245.5 123Z" fill="#C8D9F9"/>
<path d="M220.5 117C217.104 121.098 212.35 136 220.5 136C228.65 136 223.896 121.098 220.5 117Z" fill="#C8D9F9"/>
<path d="M47.5 91C44.1042 95.098 39.3501 110 47.5 110C55.6499 110 50.8958 95.098 47.5 91Z" fill="#C8D9F9"/>
<path d="M69.5 60C66.1042 64.098 61.3501 79 69.5 79C77.6499 79 72.8958 64.098 69.5 60Z" fill="#C8D9F9"/>
<path d="M83.5 15C80.1042 19.098 75.3501 34 83.5 34C91.6499 34 86.8958 19.098 83.5 15Z" fill="#C8D9F9"/>
<path d="M105.5 50C102.104 54.098 97.3501 69 105.5 69C113.65 69 108.896 54.098 105.5 50Z" fill="#C8D9F9"/>
<path d="M135.5 32C132.104 36.098 127.35 51 135.5 51C143.65 51 138.896 36.098 135.5 32Z" fill="#C8D9F9"/>
<path d="M167.5 55C164.104 59.098 159.35 74 167.5 74C175.65 74 170.896 59.098 167.5 55Z" fill="#C8D9F9"/>
<path d="M179.5 9C176.104 13.098 171.35 28 179.5 28C187.65 28 182.896 13.098 179.5 9Z" fill="#C8D9F9"/>
<path d="M136.5 0C133.104 4.09804 128.35 19 136.5 19C144.65 19 139.896 4.09804 136.5 0Z" fill="#C8D9F9"/>
<path d="M47.5 41C44.1042 45.098 39.3501 60 47.5 60C55.6499 60 50.8958 45.098 47.5 41Z" fill="#C8D9F9"/>
<path d="M47.5 195C44.1042 199.098 39.3501 214 47.5 214C55.6499 214 50.8958 199.098 47.5 195Z" fill="#C8D9F9"/>
<path d="M26.5 123C23.1042 127.098 18.3501 142 26.5 142C34.6499 142 29.8958 127.098 26.5 123Z" fill="#C8D9F9"/>
<path d="M35.5 165C32.1042 169.098 27.3501 184 35.5 184C43.6499 184 38.8958 169.098 35.5 165Z" fill="#C8D9F9"/>
<path d="M26.5 83C23.1042 87.098 18.3501 102 26.5 102C34.6499 102 29.8958 87.098 26.5 83Z" fill="#C8D9F9"/>
<path d="M4.5 159C1.10419 163.098 -3.64993 178 4.5 178C12.6499 178 7.89581 163.098 4.5 159Z" fill="#C8D9F9"/>
<path d="M197.5 41C194.104 45.098 189.35 60 197.5 60C205.65 60 200.896 45.098 197.5 41Z" fill="#C8D9F9"/>
<path d="M229.5 47C226.104 51.098 221.35 66 229.5 66C237.65 66 232.896 51.098 229.5 47Z" fill="#C8D9F9"/>
</svg>
