<svg width="10" height="10" viewBox="0 0 10 10" fill="none" xmlns="http://www.w3.org/2000/svg">
<path d="M3.02034 5.08993L1.10011 3.30004C0.344159 4.0682 0.0576913 4.83775 0.0527179 4.85351L0 5L0.0522206 5.14649C0.0631621 5.17755 1.20406 8.24508 5.00025 8.24508C5.46228 8.24508 5.88303 8.19779 6.26946 8.11852L4.90376 6.84552C4.41204 6.82305 3.94686 6.63088 3.59874 6.30638C3.25062 5.98189 3.04445 5.54829 3.02034 5.08993ZM5.00025 1.75492C4.07768 1.75492 3.32173 1.94221 2.6916 2.21757L0.848958 0.5L0.14572 1.15551L9.09783 9.5L9.80106 8.84449L8.16084 7.3156C9.47282 6.41022 9.94082 5.16596 9.94778 5.14649L10 5L9.94778 4.85351C9.93684 4.82245 8.79644 1.75492 5.00025 1.75492ZM5.94818 5.25312C6.04118 4.93927 5.9621 4.58602 5.70349 4.34449C5.44487 4.10297 5.0654 4.02972 4.7287 4.11641L3.97871 3.41733C4.28605 3.24116 4.63945 3.14718 5.00025 3.14567C6.09738 3.14567 6.98961 3.97734 6.98961 5C6.98813 5.33625 6.88711 5.66559 6.69767 5.95174L5.94818 5.25312Z" fill="#C8D9F9"/>
</svg>
