<svg width="221" height="239" viewBox="0 0 221 239" fill="none" xmlns="http://www.w3.org/2000/svg">
<g clip-path="url(#clip0_1_381)">
<path d="M100.729 73.904L110.5 77.1406V62.9773H101.634L100.729 73.904Z" fill="#F3A3A6"/>
<path d="M109.292 66.8969C114.67 66.8969 119.029 62.507 119.029 57.0918C119.029 51.6767 114.67 47.2868 109.292 47.2868C103.913 47.2868 99.5536 51.6767 99.5536 57.0918C99.5536 62.507 103.913 66.8969 109.292 66.8969Z" fill="#F3A3A6"/>
<path d="M106.813 57.8616L108.153 59.5006L110.582 55.221C110.582 55.221 113.682 55.3824 113.682 53.0646C113.682 50.7469 116.526 50.6848 116.526 50.6848C116.526 50.6848 120.55 43.6073 112.214 45.4739C112.214 45.4739 106.431 41.484 103.557 44.8945C103.557 44.8945 94.7401 49.3645 97.264 57.1497L101.457 65.175L102.406 63.358C102.406 63.358 101.831 55.7342 106.817 57.8575L106.813 57.8616Z" fill="#2F2E43"/>
<path d="M115.227 231.066H123.835V218.769H115.227V231.066Z" fill="#F3A3A6"/>
<path d="M122.881 238.11C121.409 238.243 114.043 238.83 113.673 237.129C113.336 235.569 113.834 233.938 113.904 233.715C114.611 226.621 114.874 226.542 115.034 226.496C115.285 226.422 116.016 226.774 117.204 227.544L117.278 227.593L117.295 227.68C117.315 227.792 117.841 230.395 120.337 229.994C122.047 229.721 122.601 229.34 122.778 229.154C122.634 229.087 122.453 228.972 122.326 228.773C122.141 228.483 122.108 228.111 122.232 227.664C122.552 226.484 123.514 224.742 123.555 224.671L123.666 224.473L133.449 231.12L139.492 232.858C139.948 232.99 140.314 233.317 140.499 233.756C140.754 234.369 140.597 235.081 140.104 235.528C139.007 236.521 136.828 238.222 134.539 238.433C133.93 238.491 133.124 238.512 132.22 238.512C128.443 238.512 122.926 238.118 122.885 238.11H122.881Z" fill="#2F2E43"/>
<path d="M80.3383 212.659L87.1671 217.935L94.6016 208.179L87.7728 202.903L80.3383 212.659Z" fill="#F3A3A6"/>
<path d="M82.1454 222.937C80.8958 222.142 74.697 218.09 75.4328 216.518C76.107 215.073 77.4881 214.08 77.6813 213.951C82.5318 208.757 82.7866 208.856 82.9428 208.914C83.1895 209.01 83.5553 209.734 84.0321 211.075L84.0609 211.158L84.0198 211.236C83.9705 211.336 82.8154 213.728 85.031 214.936C86.5519 215.768 87.2219 215.806 87.4768 215.768C87.4028 215.628 87.3288 215.425 87.3493 215.189C87.3781 214.845 87.5754 214.531 87.9454 214.249C88.9114 213.513 90.7282 212.718 90.8063 212.685L91.0119 212.594L94.7566 223.864L98.5013 228.947C98.7849 229.332 98.8753 229.816 98.7561 230.279C98.5876 230.925 98.0327 231.393 97.3709 231.442C95.8993 231.558 93.1411 231.571 91.2009 230.337C90.6871 230.01 90.0335 229.534 89.3142 228.98C86.3176 226.662 82.1783 222.97 82.1495 222.941L82.1454 222.937Z" fill="#2F2E43"/>
<path d="M129.154 130.441L96.6556 133.781C96.6556 133.781 92.0148 149.141 98.6451 156.487L102.624 177.19L84.7186 201.899L95.9938 209.246L111.91 191.883V221.265L127.164 219.928L134.46 173.85L129.154 130.441Z" fill="#2F2E43"/>
<path d="M114.561 71.6731C114.561 71.6731 111.91 67.0003 100.635 67.6667L97.9834 73.6763C97.9834 73.6763 90.0253 75.6796 90.0253 87.6989C90.0253 99.7182 94.0044 135.78 94.0044 135.78L132.804 133.442L114.857 76.9585L114.565 71.669L114.561 71.6731Z" fill="white"/>
<path d="M149.83 114.312C152.366 115.487 153.784 117.797 152.999 119.473C152.214 121.149 149.517 121.555 146.981 120.384C145.962 119.928 145.07 119.229 144.383 118.335L133.7 113.219L136.331 108.062L146.587 113.654C147.713 113.604 148.831 113.828 149.838 114.312H149.83Z" fill="#F3A3A6"/>
<path d="M143.212 118.082L117.422 109.602L117.393 109.573L97.7491 91.2707C94.7401 88.4687 94.288 83.8373 96.7009 80.4972C98.1766 78.4526 100.462 77.2316 102.969 77.1447C105.477 77.0578 107.84 78.1215 109.452 80.0585L124.205 97.7978L145.452 111.696L143.212 118.082Z" fill="white"/>
</g>
<defs>
<clipPath id="clip0_1_381">
<rect width="221" height="239" fill="white"/>
</clipPath>
</defs>
</svg>
