<svg width="287" height="309" viewBox="0 0 287 309" fill="none" xmlns="http://www.w3.org/2000/svg">
<g clip-path="url(#clip0_1_364)">
<path d="M103.606 -0.00831043L101.774 1.09186L198.459 162.84L200.29 161.74L103.606 -0.00831043Z" fill="#000019"/>
<path d="M130.811 95.5495L143.5 99.7341V81.4225H131.986L130.811 95.5495Z" fill="#F3A3A6"/>
<path d="M141.931 86.49C148.915 86.49 154.577 80.8145 154.577 73.8133C154.577 66.8121 148.915 61.1365 141.931 61.1365C134.946 61.1365 129.285 66.8121 129.285 73.8133C129.285 80.8145 134.946 86.49 141.931 86.49Z" fill="#F3A3A6"/>
<path d="M138.712 74.8085L140.452 76.9276L143.607 71.3945C143.607 71.3945 147.632 71.6032 147.632 68.6066C147.632 65.61 151.326 65.5297 151.326 65.5297C151.326 65.5297 156.552 56.3793 145.726 58.7927C145.726 58.7927 138.215 53.6342 134.484 58.0435C134.484 58.0435 123.034 63.8227 126.311 73.8881L131.756 84.264L132.989 81.9148C132.989 81.9148 132.242 72.0581 138.717 74.8032L138.712 74.8085Z" fill="#2F2E43"/>
<path d="M149.639 298.742H160.817V282.844H149.639V298.742Z" fill="#F3A3A6"/>
<path d="M159.578 307.849C157.667 308.021 148.101 308.781 147.621 306.581C147.183 304.564 147.829 302.456 147.92 302.167C148.838 292.995 149.18 292.893 149.388 292.834C149.714 292.738 150.664 293.193 152.207 294.188L152.303 294.252L152.324 294.365C152.351 294.509 153.034 297.875 156.274 297.356C158.495 297.003 159.215 296.51 159.445 296.27C159.258 296.184 159.023 296.034 158.858 295.777C158.618 295.403 158.575 294.921 158.735 294.343C159.151 292.818 160.401 290.565 160.454 290.474L160.598 290.218L173.303 298.811L181.15 301.059C181.742 301.23 182.218 301.653 182.458 302.22C182.789 303.012 182.586 303.932 181.945 304.51C180.52 305.795 177.691 307.994 174.717 308.267C173.927 308.342 172.881 308.369 171.707 308.369C166.801 308.369 159.637 307.86 159.584 307.849H159.578Z" fill="#2F2E43"/>
<path d="M104.331 274.944L113.199 281.765L122.854 269.152L113.985 262.331L104.331 274.944Z" fill="#F3A3A6"/>
<path d="M106.677 288.232C105.055 287.205 97.0047 281.966 97.9603 279.933C98.8357 278.065 100.629 276.781 100.88 276.615C107.179 269.899 107.51 270.028 107.713 270.103C108.033 270.226 108.508 271.162 109.128 272.896L109.165 273.003L109.112 273.105C109.048 273.233 107.548 276.326 110.425 277.889C112.4 278.964 113.27 279.012 113.601 278.964C113.505 278.782 113.409 278.52 113.436 278.215C113.473 277.771 113.729 277.364 114.21 277C115.464 276.048 117.824 275.02 117.925 274.978L118.192 274.86L123.055 289.431L127.918 296.002C128.286 296.5 128.404 297.126 128.249 297.725C128.03 298.56 127.309 299.165 126.45 299.229C124.539 299.379 120.957 299.395 118.437 297.8C117.77 297.377 116.921 296.762 115.987 296.045C112.096 293.048 106.72 288.275 106.683 288.238L106.677 288.232Z" fill="#2F2E43"/>
<path d="M167.724 168.646L125.521 172.964C125.521 172.964 119.494 192.822 128.105 202.32L133.272 229.086L110.019 261.033L124.662 270.531L145.331 248.083V286.07L165.141 284.342L174.616 224.768L167.724 168.646Z" fill="#2F2E43"/>
<path d="M148.774 92.6652C148.774 92.6652 145.331 86.6238 130.688 87.4853L127.245 95.2552C127.245 95.2552 116.911 97.8451 116.911 113.385C116.911 128.924 122.078 175.549 122.078 175.549L172.465 172.525L149.158 99.4986L148.779 92.6599L148.774 92.6652Z" fill="white"/>
<path d="M97.7041 25.3857C95.9211 37.2116 96.7378 49.4068 100.021 60.8957L155.441 31.6411C154.475 30.4906 153.488 29.3616 152.457 28.2699C144.146 19.4781 133.795 12.6714 122.436 8.56714C118.261 10.3651 113.927 12.5163 109.437 15.0901C105.38 17.4125 101.665 19.7724 98.2592 22.1483C98.051 23.2238 97.8642 24.2994 97.7041 25.3803V25.3857Z" fill="#FFE072"/>
<path d="M129.124 9.57851C135.53 12.5216 141.52 16.3423 146.927 20.8694C150.546 23.8981 153.877 27.2586 156.888 30.8866L193.508 11.5584C193.508 11.5584 168.071 -10.0066 124.582 7.67887C126.114 8.26749 127.63 8.89892 129.119 9.58387L129.124 9.57851Z" fill="#FFE072"/>
<path d="M97.3304 56.8823C94.8375 45.9393 94.5279 34.52 96.4069 23.47C57.5559 51.5526 61.2605 81.3583 61.2605 81.3583L98.5795 61.6609C98.1204 60.0823 97.6934 58.493 97.3251 56.8877L97.3304 56.8823Z" fill="#FFE072"/>
<path d="M194.575 147.792C197.869 149.312 199.711 152.298 198.691 154.465C197.671 156.632 194.17 157.157 190.876 155.642C189.552 155.054 188.394 154.149 187.502 152.994L173.628 146.38L177.045 139.712L190.364 146.942C191.826 146.877 193.278 147.166 194.586 147.792H194.575Z" fill="#F3A3A6"/>
<path d="M185.981 152.667L152.489 141.703L152.452 141.665L126.941 118.003C123.034 114.38 122.446 108.392 125.58 104.074C127.496 101.43 130.464 99.8518 133.721 99.7394C136.977 99.627 140.046 101.002 142.139 103.507L161.297 126.441L188.89 144.411L185.981 152.667Z" fill="white"/>
</g>
<defs>
<clipPath id="clip0_1_364">
<rect width="287" height="309" fill="white"/>
</clipPath>
</defs>
</svg>
